<svg id="behance" xmlns="http://www.w3.org/2000/svg" width="59" height="59" viewBox="0 0 59 59">
  <defs>
    <style>
      .cls-1 {
        fill: none;
        stroke: #fff;
        stroke-width: 3px;
      }

      .cls-2 {
        fill: #fff;
        fill-rule: evenodd;
      }
    </style>
  </defs>
  <circle class="cls-1" cx="29.5" cy="29.5" r="28"/>
  <path class="cls-2" d="M404.859,249h6.969v2.358h-6.969V249Zm9.13,10.781h-8.54c0.092,1.977,1.1,2.878,2.908,2.878a2.686,2.686,0,0,0,2.564-1.472h2.862a5.31,5.31,0,0,1-5.541,3.822,5.659,5.659,0,0,1-6.044-5.975,5.81,5.81,0,0,1,6.044-6C412.272,253.038,414.218,256.289,413.989,259.781Zm-8.54-1.977h5.289c-0.3-1.581-1.008-2.416-2.587-2.416A2.512,2.512,0,0,0,405.449,257.8Zm-4.765,2.351c0,3.185-2.816,4.546-5.77,4.546h-7.921V249.018h7.692c3.114,0,5.22.967,5.22,3.888a3.438,3.438,0,0,1-2.22,3.273A3.85,3.85,0,0,1,400.684,260.155Zm-6.731-8.457h-3.366v3.668h3.641c1.259,0,2.2-.549,2.2-1.867C396.425,252.005,395.235,251.7,393.953,251.7Zm0.549,6.018h-3.915v4.306h3.847c1.419,0,2.655-.44,2.655-2.065C397.089,258.353,396.036,257.716,394.5,257.716Z" transform="translate(-370.5 -227.5)"/>
</svg>
